# xmcd CD database file generated by OrangeCD 6.0
#
# Track frame offsets:
#	150
#	13004
#	31077
#	49891
#	65335
#	84207
#	99002
#	115429
#	128334
#	144281
#	168721
#	186116
#	205190
#	225142
#	244698
#	262988
#	284245
#	298707
#	321129
#	341749
#
# Disc length: 4797 seconds
#
# Revision: 0
# Processed by: cddbd v1.5.2PL0 Copyright (c) Steve Scherf et al.
# Submitted via: OrangeCD 6.0
#
DISCID=1312bb14
DTITLE=Bonnie Raitt - The Glow (1979) - Nine Lives (1986)
DYEAR=1900
DGENRE=
TTITLE0=Thank you
TTITLE1=You good thing (is about to end)
TTITLE2=Standin' By The Same Old Love
TTITLE3=Sleep's Dark And Silent Gate
TTITLE4=The Glow
TTITLE5=Bye Bye Baby
TTITLE6=The Boy Can't Help It
TTITLE7=(I Could Have Been Your) Best Old Friend
TTITLE8=You're Gonna Get What's Coming
TTITLE9=(Goin') Wild For You Baby 
TTITLE10=NO WAY TO TREAT A LADY
TTITLE11=RUNNIN' BACK TO ME
TTITLE12=WHO BUT A FOOL (THIEF INTO PARADISE)
TTITLE13=CRIME OF PASSION
TTITLE14=ALL DAY,ALL NIGHT
TTITLE15=STAND UP TO THE NIGHT
TTITLE16=EXCITED
TTITLE17=FREEZIN'(FOR A LITTLE HUMAN LOVE)
TTITLE18=TRUE LOVE IS HARD TO FIND
TTITLE19=ANGEL
EXTD=
EXTT0=
EXTT1=
EXTT2=
EXTT3=
EXTT4=
EXTT5=
EXTT6=
EXTT7=
EXTT8=
EXTT9=
EXTT10=
EXTT11=
EXTT12=
EXTT13=
EXTT14=
EXTT15=
EXTT16=
EXTT17=
EXTT18=
EXTT19=
PLAYORDER=
